<svg aria-roledescription="gitGraph" role="graphics-document document" viewBox="-140.40625 -18 1248.40625 918.1162109375" height="100%" xmlns="http://www.w3.org/2000/svg" width="1248.40625" id="graph-div" style="max-width: 100%;" xmlns:xlink="http://www.w3.org/1999/xlink"><style>@import url("https://cdnjs.cloudflare.com/ajax/libs/font-awesome/6.2.0/css/all.min.css");'</style><style>#graph-div{font-family:"trebuchet ms",verdana,arial,sans-serif;font-size:12px;fill:#333;}#graph-div .error-icon{fill:hsl(60, 90%, 100%);}#graph-div .error-text{fill:rgb(0, 0, 0);stroke:rgb(0, 0, 0);}#graph-div .edge-thickness-normal{stroke-width:2px;}#graph-div .edge-thickness-thick{stroke-width:3.5px;}#graph-div .edge-pattern-solid{stroke-dasharray:0;}#graph-div .edge-pattern-dashed{stroke-dasharray:3;}#graph-div .edge-pattern-dotted{stroke-dasharray:2;}#graph-div .marker{fill:#0b0b0b;stroke:#0b0b0b;}#graph-div .marker.cross{stroke:#0b0b0b;}#graph-div svg{font-family:"trebuchet ms",verdana,arial,sans-serif;font-size:12px;}#graph-div .commit-id,#graph-div .commit-msg,#graph-div .branch-label{fill:lightgrey;color:lightgrey;font-family:'trebuchet ms',verdana,arial,sans-serif;font-family:var(--mermaid-font-family);}#graph-div .branch-label0{fill:#333;}#graph-div .commit0{stroke:hsl(240, 90%, 71.0784313725%);fill:hsl(240, 90%, 71.0784313725%);}#graph-div .commit-highlight0{stroke:rgb(140.1250000002, 140.1250000002, 7.375);fill:rgb(140.1250000002, 140.1250000002, 7.375);}#graph-div .label0{fill:hsl(240, 90%, 71.0784313725%);}#graph-div .arrow0{stroke:hsl(240, 90%, 71.0784313725%);}#graph-div .branch-label1{fill:#333;}#graph-div .commit1{stroke:hsl(240, 22.2222222222%, 67.9411764706%);fill:hsl(240, 22.2222222222%, 67.9411764706%);}#graph-div .commit-highlight1{stroke:rgb(99.9166666666, 99.9166666666, 63.5833333333);fill:rgb(99.9166666666, 99.9166666666, 63.5833333333);}#graph-div .label1{fill:hsl(240, 22.2222222222%, 67.9411764706%);}#graph-div .arrow1{stroke:hsl(240, 22.2222222222%, 67.9411764706%);}#graph-div .branch-label2{fill:#333;}#graph-div .commit2{stroke:hsl(60, 90%, 75%);fill:hsl(60, 90%, 75%);}#graph-div .commit-highlight2{stroke:rgb(6.375, 6.375, 121.125);fill:rgb(6.375, 6.375, 121.125);}#graph-div .label2{fill:hsl(60, 90%, 75%);}#graph-div .arrow2{stroke:hsl(60, 90%, 75%);}#graph-div .branch-label3{fill:#333;}#graph-div .commit3{stroke:hsl(210, 90%, 71.0784313725%);fill:hsl(210, 90%, 71.0784313725%);}#graph-div .commit-highlight3{stroke:rgb(140.1250000002, 73.7500000001, 7.375);fill:rgb(140.1250000002, 73.7500000001, 7.375);}#graph-div .label3{fill:hsl(210, 90%, 71.0784313725%);}#graph-div .arrow3{stroke:hsl(210, 90%, 71.0784313725%);}#graph-div .branch-label4{fill:#333;}#graph-div .commit4{stroke:hsl(180, 90%, 71.0784313725%);fill:hsl(180, 90%, 71.0784313725%);}#graph-div .commit-highlight4{stroke:rgb(140.1250000002, 7.375, 7.375);fill:rgb(140.1250000002, 7.375, 7.375);}#graph-div .label4{fill:hsl(180, 90%, 71.0784313725%);}#graph-div .arrow4{stroke:hsl(180, 90%, 71.0784313725%);}#graph-div .branch-label5{fill:#333;}#graph-div .commit5{stroke:hsl(150, 90%, 71.0784313725%);fill:hsl(150, 90%, 71.0784313725%);}#graph-div .commit-highlight5{stroke:rgb(140.1250000002, 7.375, 73.7500000001);fill:rgb(140.1250000002, 7.375, 73.7500000001);}#graph-div .label5{fill:hsl(150, 90%, 71.0784313725%);}#graph-div .arrow5{stroke:hsl(150, 90%, 71.0784313725%);}#graph-div .branch-label6{fill:#333;}#graph-div .commit6{stroke:hsl(300, 90%, 71.0784313725%);fill:hsl(300, 90%, 71.0784313725%);}#graph-div .commit-highlight6{stroke:rgb(7.375, 140.1250000002, 7.375);fill:rgb(7.375, 140.1250000002, 7.375);}#graph-div .label6{fill:hsl(300, 90%, 71.0784313725%);}#graph-div .arrow6{stroke:hsl(300, 90%, 71.0784313725%);}#graph-div .branch-label7{fill:#333;}#graph-div .commit7{stroke:hsl(0, 90%, 71.0784313725%);fill:hsl(0, 90%, 71.0784313725%);}#graph-div .commit-highlight7{stroke:rgb(7.375, 140.1250000002, 140.1250000002);fill:rgb(7.375, 140.1250000002, 140.1250000002);}#graph-div .label7{fill:hsl(0, 90%, 71.0784313725%);}#graph-div .arrow7{stroke:hsl(0, 90%, 71.0784313725%);}#graph-div .branch{stroke-width:1;stroke:#0b0b0b;stroke-dasharray:2;}#graph-div .commit-label{font-size:10px;fill:#16160e;}#graph-div .commit-label-bkg{font-size:10px;fill:#E9E9F1;opacity:0.5;}#graph-div .tag-label{font-size:10px;fill:#333;}#graph-div .tag-label-bkg{fill:#ECECFE;stroke:#BCBCFB;}#graph-div .tag-hole{fill:#333;}#graph-div .commit-merge{stroke:#ECECFE;fill:#ECECFE;}#graph-div .commit-reverse{stroke:#ECECFE;fill:#ECECFE;stroke-width:3;}#graph-div .commit-highlight-inner{stroke:#ECECFE;fill:#ECECFE;}#graph-div .arrow{stroke-width:8;stroke-linecap:round;fill:none;}#graph-div .gitTitleText{text-anchor:middle;font-size:18px;fill:#333;}#graph-div :root{--mermaid-font-family:"trebuchet ms",verdana,arial,sans-serif;}</style><g></g><g class="commit-bullets"></g><g class="commit-labels"></g><g><line class="branch branch0" y2="0" x2="1100" y1="0" x1="0"></line><rect transform="translate(-19, -7)" height="18" width="44.3359375" y="1" x="-60.3359375" ry="4" rx="4" class="branchLabelBkg label0"></rect><g class="branchLabel"><g transform="translate(-70.3359375, -8)" class="label branch-label0"><text><tspan class="row" x="0" dy="1em" xml:space="preserve">main</tspan></text></g></g><line class="branch branch1" y2="90" x2="1100" y1="90" x1="0"></line><rect transform="translate(-19, 83)" height="18" width="60.361328125" y="1" x="-76.361328125" ry="4" rx="4" class="branchLabelBkg label1"></rect><g class="branchLabel"><g transform="translate(-86.361328125, 82)" class="label branch-label1"><text><tspan class="row" x="0" dy="1em" xml:space="preserve">develop</tspan></text></g></g><line class="branch branch2" y2="180" x2="1100" y1="180" x1="0"></line><rect transform="translate(-19, 173)" height="18" width="97.40625" y="1" x="-113.40625" ry="4" rx="4" class="branchLabelBkg label2"></rect><g class="branchLabel"><g transform="translate(-123.40625, 172)" class="label branch-label2"><text><tspan class="row" x="0" dy="1em" xml:space="preserve">new_feature_1</tspan></text></g></g><line class="branch branch3" y2="270" x2="1100" y1="270" x1="0"></line><rect transform="translate(-19, 263)" height="18" width="63.6953125" y="1" x="-79.6953125" ry="4" rx="4" class="branchLabelBkg label3"></rect><g class="branchLabel"><g transform="translate(-89.6953125, 262)" class="label branch-label3"><text><tspan class="row" x="0" dy="1em" xml:space="preserve">backend</tspan></text></g></g><line class="branch branch4" y2="360" x2="1100" y1="360" x1="0"></line><rect transform="translate(-19, 353)" height="18" width="52.34375" y="1" x="-68.34375" ry="4" rx="4" class="branchLabelBkg label4"></rect><g class="branchLabel"><g transform="translate(-78.34375, 352)" class="label branch-label4"><text><tspan class="row" x="0" dy="1em" xml:space="preserve">server</tspan></text></g></g><line class="branch branch5" y2="450" x2="1100" y1="450" x1="0"></line><rect transform="translate(-19, 443)" height="18" width="58.029296875" y="1" x="-74.029296875" ry="4" rx="4" class="branchLabelBkg label5"></rect><g class="branchLabel"><g transform="translate(-84.029296875, 442)" class="label branch-label5"><text><tspan class="row" x="0" dy="1em" xml:space="preserve">chatbot</tspan></text></g></g><line class="branch branch6" y2="540" x2="1100" y1="540" x1="0"></line><rect transform="translate(-19, 533)" height="18" width="63.359375" y="1" x="-79.359375" ry="4" rx="4" class="branchLabelBkg label6"></rect><g class="branchLabel"><g transform="translate(-89.359375, 532)" class="label branch-label6"><text><tspan class="row" x="0" dy="1em" xml:space="preserve">frontend</tspan></text></g></g><line class="branch branch7" y2="630" x2="1100" y1="630" x1="0"></line><rect transform="translate(-19, 623)" height="18" width="51.009765625" y="1" x="-67.009765625" ry="4" rx="4" class="branchLabelBkg label7"></rect><g class="branchLabel"><g transform="translate(-77.009765625, 622)" class="label branch-label7"><text><tspan class="row" x="0" dy="1em" xml:space="preserve">admin</tspan></text></g></g><line class="branch branch0" y2="720" x2="1100" y1="720" x1="0"></line><rect transform="translate(-19, 713)" height="18" width="46.6796875" y="1" x="-62.6796875" ry="4" rx="4" class="branchLabelBkg label0"></rect><g class="branchLabel"><g transform="translate(-72.6796875, 712)" class="label branch-label0"><text><tspan class="row" x="0" dy="1em" xml:space="preserve">client</tspan></text></g></g><line class="branch branch1" y2="810" x2="1100" y1="810" x1="0"></line><rect transform="translate(-19, 803)" height="18" width="54.681640625" y="1" x="-70.681640625" ry="4" rx="4" class="branchLabelBkg label1"></rect><g class="branchLabel"><g transform="translate(-80.681640625, 802)" class="label branch-label1"><text><tspan class="row" x="0" dy="1em" xml:space="preserve">testing</tspan></text></g></g></g><g class="commit-arrows"><path class="arrow arrow1" d="M 10 0 L 10 70 A 20 20, 0, 0, 0, 30 90 L 60 90"></path><path class="arrow arrow2" d="M 60 90 L 60 160 A 20 20, 0, 0, 0, 80 180 L 110 180"></path><path class="arrow arrow3" d="M 110 180 L 110 250 A 20 20, 0, 0, 0, 130 270 L 160 270"></path><path class="arrow arrow4" d="M 160 270 L 160 340 A 20 20, 0, 0, 0, 180 360 L 210 360"></path><path class="arrow arrow4" d="M 210 360 L 210 360  210 360 L 260 360"></path><path class="arrow arrow4" d="M 260 360 L 260 360  260 360 L 310 360"></path><path class="arrow arrow5" d="M 160 270 L 160 430 A 20 20, 0, 0, 0, 180 450 L 360 450"></path><path class="arrow arrow5" d="M 360 450 L 360 450  360 450 L 410 450"></path><path class="arrow arrow6" d="M 110 180 L 110 520 A 20 20, 0, 0, 0, 130 540 L 460 540"></path><path class="arrow arrow7" d="M 460 540 L 460 610 A 20 20, 0, 0, 0, 480 630 L 510 630"></path><path class="arrow arrow7" d="M 510 630 L 510 630  510 630 L 560 630"></path><path class="arrow arrow0" d="M 460 540 L 460 700 A 20 20, 0, 0, 0, 480 720 L 610 720"></path><path class="arrow arrow3" d="M 160 270 L 160 270  160 270 L 660 270"></path><path class="arrow arrow4" d="M 310 360 L 640 360 A 20 20, 0, 0, 0, 660 340 L 660 270"></path><path class="arrow arrow3" d="M 660 270 L 660 270  660 270 L 710 270"></path><path class="arrow arrow3" d="M 410 450 L 410 352 A 10 10, 0, 0, 1, 420 342 L 700 342 A 10 10, 0, 0, 0, 710 332 L 710 270"></path><path class="arrow arrow6" d="M 460 540 L 460 540  460 540 L 760 540"></path><path class="arrow arrow0" d="M 610 720 L 740 720 A 20 20, 0, 0, 0, 760 700 L 760 540"></path><path class="arrow arrow6" d="M 760 540 L 760 540  760 540 L 810 540"></path><path class="arrow arrow6" d="M 560 630 L 560 595 A 10 10, 0, 0, 1, 570 585 L 800 585 A 10 10, 0, 0, 0, 810 575 L 810 540"></path><path class="arrow arrow2" d="M 110 180 L 110 180  110 180 L 860 180"></path><path class="arrow arrow3" d="M 710 270 L 840 270 A 20 20, 0, 0, 0, 860 250 L 860 180"></path><path class="arrow arrow2" d="M 860 180 L 860 180  860 180 L 910 180"></path><path class="arrow arrow2" d="M 810 540 L 810 334 A 10 10, 0, 0, 1, 820 324 L 900 324 A 10 10, 0, 0, 0, 910 314 L 910 180"></path><path class="arrow arrow1" d="M 60 90 L 60 90  60 90 L 960 90"></path><path class="arrow arrow2" d="M 910 180 L 940 180 A 20 20, 0, 0, 0, 960 160 L 960 90"></path><path class="arrow arrow1" d="M 960 90 L 960 790 A 20 20, 0, 0, 0, 980 810 L 1010 810"></path><path class="arrow arrow0" d="M 10 0 L 10 0  10 0 L 1060 0"></path><path class="arrow arrow1" d="M 1010 810 L 1040 810 A 20 20, 0, 0, 0, 1060 790 L 1060 0"></path></g><g class="commit-bullets"><circle class="commit 0-25cd71c commit0" r="10" cy="0" cx="10"></circle><circle class="commit 1-4492a0f commit1" r="10" cy="90" cx="60"></circle><circle class="commit 2-186c189 commit2" r="10" cy="180" cx="110"></circle><circle class="commit 3-11c4124 commit3" r="10" cy="270" cx="160"></circle><circle class="commit 4-3c31190 commit4" r="10" cy="360" cx="210"></circle><circle class="commit 5-8fa9b3b commit4" r="10" cy="360" cx="260"></circle><circle class="commit 6-a8914a3 commit4" r="10" cy="360" cx="310"></circle><circle class="commit 7-901c27d commit5" r="10" cy="450" cx="360"></circle><circle class="commit 8-32fcdbc commit5" r="10" cy="450" cx="410"></circle><circle class="commit 9-3e025d4 commit6" r="10" cy="540" cx="460"></circle><circle class="commit 10-f90b6ca commit7" r="10" cy="630" cx="510"></circle><circle class="commit 11-f07cd2c commit7" r="10" cy="630" cx="560"></circle><circle class="commit 12-fd8c588 commit0" r="10" cy="720" cx="610"></circle><circle class="commit Feature 1 : Complete Server Part commit3" r="9" cy="270" cx="660"></circle><circle class="commit commit-merge Feature 1 : Complete Server Part commit3" r="6" cy="270" cx="660"></circle><circle class="commit Feature 1 : Complete Chatbot Part commit3" r="9" cy="270" cx="710"></circle><circle class="commit commit-merge Feature 1 : Complete Chatbot Part commit3" r="6" cy="270" cx="710"></circle><circle class="commit Feature 1 : Complete Client Part commit6" r="9" cy="540" cx="760"></circle><circle class="commit commit-merge Feature 1 : Complete Client Part commit6" r="6" cy="540" cx="760"></circle><circle class="commit Feature 1 : Complete Admin Part commit6" r="9" cy="540" cx="810"></circle><circle class="commit commit-merge Feature 1 : Complete Admin Part commit6" r="6" cy="540" cx="810"></circle><circle class="commit Feature 1 : Complete Backend Part commit2" r="9" cy="180" cx="860"></circle><circle class="commit commit-merge Feature 1 : Complete Backend Part commit2" r="6" cy="180" cx="860"></circle><circle class="commit Feature 1 : Complete Frontend Part commit2" r="9" cy="180" cx="910"></circle><circle class="commit commit-merge Feature 1 : Complete Frontend Part commit2" r="6" cy="180" cx="910"></circle><circle class="commit Feature 1 : Developed commit1" r="9" cy="90" cx="960"></circle><circle class="commit commit-merge Feature 1 : Developed commit1" r="6" cy="90" cx="960"></circle><circle class="commit Feature 1 : Testing commit1" r="10" cy="810" cx="1010"></circle><circle class="commit Feature 1 : Stable commit0" r="9" cy="0" cx="1060"></circle><circle class="commit commit-merge Feature 1 : Stable commit0" r="6" cy="0" cx="1060"></circle></g><g class="commit-labels"><g transform="translate(-29.425703125000002, 26.217734375) rotate(-45, 0, 0)"><rect height="15" width="51.69921875" y="13.5" x="-15.849609375" class="commit-label-bkg"></rect><text class="commit-label" y="25" x="-13.849609375">0-25cd71c</text></g><g transform="translate(-28.87908203125, 25.72865234375) rotate(-45, 50, 90)"><rect height="15" width="50.2607421875" y="103.5" x="34.86962890625" class="commit-label-bkg"></rect><text class="commit-label" y="115" x="36.86962890625">1-4492a0f</text></g><g transform="translate(-29.425703125000002, 26.217734375) rotate(-45, 100, 180)"><rect height="15" width="51.69921875" y="193.5" x="84.150390625" class="commit-label-bkg"></rect><text class="commit-label" y="205" x="86.150390625">2-186c189</text></g><g transform="translate(-29.143671875, 25.965390624999998) rotate(-45, 150, 270)"><rect height="15" width="50.95703125" y="283.5" x="134.521484375" class="commit-label-bkg"></rect><text class="commit-label" y="295" x="136.521484375">3-11c4124</text></g><g transform="translate(-29.143671875, 25.965390624999998) rotate(-45, 200, 360)"><rect height="15" width="50.95703125" y="373.5" x="184.521484375" class="commit-label-bkg"></rect><text class="commit-label" y="385" x="186.521484375">4-3c31190</text></g><g transform="translate(-28.581464843750002, 25.46236328125) rotate(-45, 250, 360)"><rect height="15" width="49.4775390625" y="373.5" x="235.26123046875" class="commit-label-bkg"></rect><text class="commit-label" y="385" x="237.26123046875">5-8fa9b3b</text></g><g transform="translate(-29.639082031250002, 26.40865234375) rotate(-45, 300, 360)"><rect height="15" width="52.2607421875" y="373.5" x="283.86962890625" class="commit-label-bkg"></rect><text class="commit-label" y="385" x="285.86962890625">6-a8914a3</text></g><g transform="translate(-29.425703125000002, 26.217734375) rotate(-45, 350, 450)"><rect height="15" width="51.69921875" y="463.5" x="334.150390625" class="commit-label-bkg"></rect><text class="commit-label" y="475" x="336.150390625">7-901c27d</text></g><g transform="translate(-28.368085937500002, 25.2714453125) rotate(-45, 400, 450)"><rect height="15" width="48.916015625" y="463.5" x="385.5419921875" class="commit-label-bkg"></rect><text class="commit-label" y="475" x="387.5419921875">8-32fcdbc</text></g><g transform="translate(-29.639082031250002, 26.40865234375) rotate(-45, 450, 540)"><rect height="15" width="52.2607421875" y="553.5" x="433.86962890625" class="commit-label-bkg"></rect><text class="commit-label" y="565" x="435.86962890625">9-3e025d4</text></g><g transform="translate(-30.481464843749997, 27.16236328125) rotate(-45, 500, 630)"><rect height="15" width="54.4775390625" y="643.5" x="482.76123046875" class="commit-label-bkg"></rect><text class="commit-label" y="655" x="484.76123046875">10-f90b6ca</text></g><g transform="translate(-30.19943359375, 26.91001953125) rotate(-45, 550, 630)"><rect height="15" width="53.7353515625" y="643.5" x="533.13232421875" class="commit-label-bkg"></rect><text class="commit-label" y="655" x="535.13232421875">11-f07cd2c</text></g><g transform="translate(-30.481464843749997, 27.16236328125) rotate(-45, 600, 720)"><rect height="15" width="54.4775390625" y="733.5" x="582.76123046875" class="commit-label-bkg"></rect><text class="commit-label" y="745" x="584.76123046875">12-fd8c588</text></g><g transform="translate(-67.35259765625, 60.15232421875) rotate(-45, 650, 270)"><rect height="15" width="151.5068359375" y="283.5" x="584.24658203125" class="commit-label-bkg"></rect><text class="commit-label" y="295" x="586.24658203125">Feature 1 : Complete Server Part</text></g><g transform="translate(-69.4696875, 62.0465625) rotate(-45, 700, 270)"><rect height="15" width="157.078125" y="283.5" x="631.4609375" class="commit-label-bkg"></rect><text class="commit-label" y="295" x="633.4609375">Feature 1 : Complete Chatbot Part</text></g><g transform="translate(-65.87564453125, 58.83083984375) rotate(-45, 750, 540)"><rect height="15" width="147.6201171875" y="553.5" x="686.18994140625" class="commit-label-bkg"></rect><text class="commit-label" y="565" x="688.18994140625">Feature 1 : Complete Client Part</text></g><g transform="translate(-66.72173828125, 59.58787109375) rotate(-45, 800, 540)"><rect height="15" width="149.8466796875" y="553.5" x="735.07666015625" class="commit-label-bkg"></rect><text class="commit-label" y="565" x="737.07666015625">Feature 1 : Complete Admin Part</text></g><g transform="translate(-70.94849609375001, 63.369707031249995) rotate(-45, 850, 180)"><rect height="15" width="160.9697265625" y="193.5" x="779.51513671875" class="commit-label-bkg"></rect><text class="commit-label" y="205" x="781.51513671875">Feature 1 : Complete Backend Part</text></g><g transform="translate(-71.3696875, 63.7465625) rotate(-45, 900, 180)"><rect height="15" width="162.078125" y="193.5" x="828.9609375" class="commit-label-bkg"></rect><text class="commit-label" y="205" x="830.9609375">Feature 1 : Complete Frontend Part</text></g><g transform="translate(-49.06769531250001, 43.7921484375) rotate(-45, 950, 90)"><rect height="15" width="103.388671875" y="103.5" x="908.3056640625" class="commit-label-bkg"></rect><text class="commit-label" y="115" x="910.3056640625">Feature 1 : Developed</text></g><g transform="translate(-42.8704296875, 38.2472265625) rotate(-45, 1000, 810)"><rect height="15" width="87.080078125" y="823.5" x="966.4599609375" class="commit-label-bkg"></rect><text class="commit-label" y="835" x="968.4599609375">Feature 1 : Testing</text></g><g transform="translate(-41.67365234375, 37.17642578125) rotate(-45, 1050, 0)"><rect height="15" width="83.9306640625" y="13.5" x="1018.03466796875" class="commit-label-bkg"></rect><text class="commit-label" y="25" x="1020.03466796875">Feature 1 : Stable</text></g></g></svg>